<?xml version="1.0" encoding="utf-8"?>
<!-- Generator: Adobe Illustrator 28.1.0, SVG Export Plug-In . SVG Version: 6.00 Build 0)  -->
<svg version="1.1" id="Слой_1" xmlns="http://www.w3.org/2000/svg" xmlns:xlink="http://www.w3.org/1999/xlink" x="0px" y="0px"
	 viewBox="30 30 435.86 151" style="enable-background:new 0 0 485.86 171;" xml:space="preserve">
<style type="text/css">
	.st0{filter:url(#AI_Скошенная_тень_1);}
	.st1{fill:#E6007E;}
</style>
<filter  height="140%" id="AI_Скошенная_тень_1" width="140%" x="-20%" y="-20%">
	<feGaussianBlur  in="SourceAlpha" result="blur" stdDeviation="4"></feGaussianBlur>
	<feOffset  dx="4" dy="4" in="blur" result="offsetBlur"></feOffset>
	
		<feSpecularLighting  in="blur" result="specOut" specularConstant="1" specularExponent="10" style="lighting-color:white" surfaceScale="5">
		<fePointLight  x="-5000" y="-10000" z="-20000"></fePointLight>
	</feSpecularLighting>
	<feComposite  in="specOut" in2="SourceAlpha" operator="in" result="specOut"></feComposite>
	<feComposite  in="SourceGraphic" in2="specOut" k1="0" k2="1" k3="1" k4="0" operator="arithmetic" result="litPaint">
		</feComposite>
	<feMerge>
		<feMergeNode  in="offsetBlur"></feMergeNode>
		<feMergeNode  in="litPaint"></feMergeNode>
	</feMerge>
</filter>
<g class="st0">
	<path class="st1" d="M59.84,80.62l-1.92,1.82h-2.63l-3.13-0.8l-2.93-1.02l-3.03-1.61l-0.61-1.39l-3.74-0.58l-2.12-0.58l-4.14,0.44
		h-3.54l-3.64,0.15l-5.05,1.31l-3.64,1.53l-5.86,3.87l-1.21,2.12l-1.92,2.99l0.51,3.43l1.62,2.85l1.62,1.75l5.26,2.7l3.03,1.82
		l3.54,1.61l2.73,1.82l3.23,1.75l6.67,2.85l3.34,2.12l2.43,1.97L47,114.7l0.61,1.68l3.34,3.87l1.42,2.41l0.81,2.63l1.52,2.85
		l1.21,2.7l0.2,3.87l-0.81,2.99l-2.32,3.5l-1.21,2.77l-2.53,1.97l-1.21,1.82l-2.93,2.19l-2.63,1.53l-4.35,1.17l-5.86,0.73
		l-4.04,0.66l-4.65-0.66l-3.23-0.15l-2.93-0.44l-2.22-0.88h-1.52l-0.81-0.73l0.4-1.68l0.81-0.88h1.52v0.88l0.4,0.58l1.42,0.66
		l2.93,0.88l6.57,0.29l2.12-0.44l3.23,0.15l4.35-0.88l3.94-1.24l4.85-2.41l0.81-1.75l2.02-2.41l1.21-2.55l1.52-1.9l0.2-2.26
		l1.01-3.28l-0.81-2.12l-0.81-2.85l-2.12-2.19l-1.01-2.7l-1.82-2.55l-1.31-2.41l-2.43-1.02l-1.92-1.53l-2.83-1.46l-2.53-1.82
		l-4.55-1.46l-2.73-1.97l-3.03-0.44l-2.93-1.82l-3.74-1.9l-2.02-1.24l-3.74-0.73l-3.54-2.26l-3.13-2.63l-1.82-2.7l-1.92-2.85V86.6
		l1.72-3.14l2.02-2.99l2.32-2.55l2.63-2.04l2.53-1.68l3.13-1.82l3.74-1.31l3.23-0.88l4.75-0.15l4.55-0.29l4.55-0.8l3.94-1.46
		l4.14-0.88l1.92-1.09l3.94,0.44l2.22,1.53l1.31,2.7l1.62,1.46l2.02,1.53l1.31,2.34l0.4,2.26L59.84,80.62z M60.64,83.9l-0.2,1.68
		l-2.73,0.44l-1.82-0.15l-2.12-1.39l1.92-1.17l2.93-0.15L60.64,83.9z"/>
	<path class="st1" d="M138.07,149.8l-1.01,1.24l-1.31,0.58l-1.62,0.15l-1.42-0.29l-0.91-0.73l-1.62-1.39l-2.02-1.17l-1.52-1.09
		l-2.63-4.16l-0.4-1.75l-0.71-1.53l-0.61-1.17h-0.81l-1.01,0.88l-1.21,1.46l-0.71,1.39l-0.61,1.46l-1.01,1.53l-1.21,1.31l-1.52,1.24
		l-1.62,1.61l-2.73,1.09l-2.02,0.73l-3.94,0.73l-3.13,0.15l-2.43-0.29l-2.73-1.02l-3.34-0.66l-2.22-1.31l-2.73-1.02l-1.62-1.24
		l-2.32-1.46l-0.81-2.26l-1.21-2.41l-0.81-2.34l-0.91-2.85l-0.81-1.68l0.61-2.26l-1.01-2.7l-0.2-1.46l-0.2-2.26l-0.4-1.9l-0.4-1.39
		l0.2-1.9l0.61-1.53l2.02-1.61l2.73-0.8l2.12-0.15l2.63,0.29l2.53,0.95l1.82,1.02l1.72,1.82l1.01,1.61l0.81,2.26l-0.4,1.61
		l-1.42,1.39l-1.31,1.61l-0.2,2.12l-1.01,2.41v2.04l0.2,2.85l1.01,2.99l1.52,1.39l1.62,1.9l2.93,1.53l2.83,1.02l3.54,0.73l2.73-0.73
		l2.63-1.02l2.12-1.53l2.02-2.34l1.52-1.97l1.21-1.97l1.01-2.04l0.81-2.7l0.51-3.14l-0.91-2.7l-0.61-2.41l-0.61-1.02l0.4-1.97
		l-0.2-1.9l0.4-1.53l0.61-1.31l0.4-1.97l1.11-1.17l1.21-0.58l1.82,0.44l0.91,1.17l0.2,1.02l0.81,1.53l-0.2,1.46v2.26l-0.81,2.26
		v1.02l-0.91,0.88l0.51,1.82l0.4,2.12l1.01,1.9l0.2,2.99l1.01,1.97l0.81,2.55l0.4,2.04l1.11,2.26l1.21,1.68l1.62,1.46l1.72,1.31
		l4.55,1.53L138.07,149.8z M103.3,130.83l-0.4,3.43l-2.93,2.12l-2.43-1.68l-1.72-2.48l0.2-2.7l-1.01-1.53l1.21-0.88l2.12,0.15
		l2.02,0.88L103.3,130.83z"/>
	<path class="st1" d="M190.63,117.84l-1.42,0.29l-1.92-0.15h-1.82l-2.73,0.29l-3.34,1.39l-1.62,1.61l-3.34,1.02l-1.42,1.24
		l-2.73,1.75l-1.21,1.82l-0.81,1.68v2.19l-0.81,1.68l-0.91,1.75l-0.81,1.97l-0.2,2.12v4.74l-0.2,2.12l-0.81,2.12l-0.2,2.04
		l-0.4,2.26v2.12l-1.52,2.19l-1.82,1.24l-2.73,0.58l-1.82,0.29l-1.62-0.29l-1.52-1.17l-0.81-1.39l-0.81-1.46l0.2-1.68l-0.2-2.41
		v-3.43l-0.2-1.61l0.2-1.82l0.2-2.41v-2.04l0.4-2.41l0.2-2.41l-0.2-2.7v-2.19l-0.4-1.82l-0.2-1.68l-1.72-2.04l-1.42-1.68l-0.81-1.75
		l-0.2-1.97l0.4-1.82l1.01-1.31l1.72-0.88l2.83-0.73l3.13-1.09l2.73,0.29l3.44,1.09l0.4,1.46l1.52,1.97v2.99l1.21,0.88l1.21,0.15
		l1.72-0.29l2.02-1.17l2.73-1.24l3.13-1.02l2.63-1.09l3.13-0.29l3.34-0.58h1.82l2.53,0.58l0.81,1.09V117.84z"/>
	<path class="st1" d="M200.53,99.15l-0.2,0.88l-1.62,0.66l-1.01-1.09l1.21-1.17L200.53,99.15z M275.93,144.48l-0.2,2.04l-1.52,1.68
		l-0.81,1.31l-1.82,1.09h-3.13l-2.73,0.58l-3.03,0.73h-3.54l-4.14-0.29l-4.75,0.58h-3.13l-3.54,0.73l-2.83,1.24l-3.94,0.88
		l-3.74,1.68l-3.13,1.46h-5.76l-3.54-0.44h-4.14l-3.34-0.15l-2.83-0.44l-3.13-0.8l-3.54,0.36l-2.32-0.51l-1.01-1.17l0.2-1.68v-1.9
		l0.2-1.68l1.11-1.61l-0.51-1.68l0.51-1.46l0.61-1.82v-2.26l1.01-2.77l0.2-2.85l-0.2-2.41l0.61-2.26l0.4-2.55l0.81-2.19l0.2-2.7
		l-0.2-1.53v-5.69l0.2-2.48v-3.28l0.51-2.41l0.4-3.14l0.2-1.97l-0.2-2.04l-0.4-2.12l0.4-1.97v-2.55l0.2-2.34l0.4-2.26l-0.4-1.39
		l0.4-1.46l0.4-1.97l-0.2-1.46l0.81-1.82L207,79.74l-0.4-2.12v-2.41l-0.2-2.19l-0.4-2.26v-1.97l1.01-1.31l-1.52-1.24l-0.4-1.46
		l1.31-1.31v-1.68l0.81-1.82v-2.19l0.2-1.97l-0.2-1.31l1.82-1.68l2.12-1.31l2.02-0.58l2.53-0.22l2.63-0.58l2.53,0.15l2.32,1.09
		l2.22,0.88l2.73,1.31l1.82,1.97l0.81,2.12l0.4,1.61l-0.81,1.97l-0.4,1.46l-2.43,1.53L226,65.95l-0.61,2.85l-1.01,1.97l-0.61,1.97
		l-0.61,2.04l-0.91,2.12v2.41l-1.01,2.34l-0.81,4.23v2.19l-1.01,1.97l-0.61,1.53l-1.11,1.31l-0.2,1.97l-0.61,2.34l-0.81,4.96v2.41
		l-1.01,2.04l-0.4,2.7l-0.91,2.55v2.41l-0.61,1.75l-0.4,1.53v2.26l-0.81,1.9l-0.2,1.97l-0.61,2.26l-1.01,2.48l0.2,1.82l-0.2,2.99
		l-0.71,2.26l-0.61,1.61v1.09l-0.4,1.61l-0.2,1.97l0.61,0.88l1.92,0.29l2.22-0.73l3.54-0.29l3.94-0.29h2.22l2.93,0.88h3.34
		l2.22-0.58l2.73-0.15l3.74-0.95l2.02-0.58l3.13,0.15l3.94,0.44l3.74-0.44l4.35-0.73l3.34-1.17l2.63-0.95l0.61-1.31l2.93-1.17
		l2.32-0.8l2.83,0.44l2.12,1.09l1.21,1.61l2.12,1.53l0.4,1.61l0.61,1.97V144.48z M260.97,120.39l-0.61,0.88l-1.21-0.29l-1.01-1.31
		l1.42-1.24l1.42,0.73V120.39z"/>
	<path class="st1" d="M332.03,151.92l-0.2,1.02l-1.41,1.09h-1.52l-1.62-1.24l-0.81-1.9l-1.31-1.53l-0.81-2.12l-0.81-0.58l-1.21,0.44
		l-1.72,0.8l-1.82,1.61l-2.93,1.24l-1.82,1.31l-3.13,1.17l-3.54,0.95l-3.03,0.73l-2.73,0.58l-2.02,0.58l-2.12-0.44l-2.93-0.29
		l-3.44-1.02l-3.13-1.39l-1.92-1.75l-1.42-1.97l-0.2-3.14v-2.12l0.61-2.34l1.92-2.41l1.82-2.26l2.53-1.61l2.63-1.39l3.54-0.44
		l3.13-0.29l3.54-0.58l3.03-1.39l3.94-1.46l1.92-0.58l2.02-0.44l0.81-1.53l-1.62-2.12l-1.92-1.9l-4.04-2.7l-4.14-0.88l-3.34-0.15
		l-1.21,0.15h-2.12l-2.53,0.88l-2.22,1.02l-2.73,0.29h-3.03l-3.54,0.66h-3.13l-2.53-0.95l-1.82-1.31l-0.2-1.82l0.61-1.61l2.12-1.82
		l2.22-2.12l2.73-1.61l3.03-1.17l3.33-1.97l3.13-1.02l5.76-0.8l4.95-0.29l3.54,0.73l2.93,1.09l3.13,0.73l3.54,1.68l1.82,1.31
		l1.82,2.12l1.31,2.7l1.01,2.63l1.41,3.5l1.31,2.63l0.2,2.26l-0.2,2.85l1.01,3.28l0.61,3.43l1.82,5.98l1.11,2.26l1.01,2.04
		l0.81,2.55L332.03,151.92z M317.98,136.37l-0.81-0.88l-2.93-0.58l-2.53,0.15l-2.22,0.73l-2.53,0.58l-2.63,1.02l-2.53,0.29
		l-2.22,0.8l-1.92,1.02l-1.21,1.31l-1.52,1.68l-0.4,1.46l-0.81,1.39v1.75l1.01,1.53l2.73,0.58h2.93l3.23-0.58l1.52-1.17l2.02-0.36
		l4.75-2.34l2.33-1.09l1.62-1.9l1.72-1.53l0.2-2.04L317.98,136.37z M323.34,151.48l-0.81,0.44l-1.72-0.44l0.5-0.88l1.21-0.51
		L323.34,151.48z M331.42,138.93l-1.21,0.58l-1.11-0.29v-0.88l1.92-0.66L331.42,138.93z"/>
	<path class="st1" d="M400.36,149.66l-0.81,0.8l-1.01,0.58l-2.12-0.15l-1.82-1.24l-0.61-1.31l-0.2-1.97v-1.61l-0.81-2.12l-0.2-2.12
		v-1.9l-0.91-1.97l-0.2-2.26l-1.62-3.58l-0.4-5.4l-1.71-3.72l-2.42-1.61l-2.92-0.95l-1.21-1.17l-2.11-0.73l-3.22,0.73l-2.32,0.58
		l-2.01,1.68L369.6,122l-2.62,2.7l-1.11,1.82l-0.6,1.61l-0.4,1.53l-1.61,1.61l-1.91,1.68l-0.81,2.41l-0.2,2.7v2.63l-0.4,3.28
		l-0.2,2.99v2.7l0.2,2.55l0.81,2.26l0.61,1.9l0.2,1.82l-1.02,0.88l-0.82,0.8l-1.94,0.29h-1.83l-1.22-0.66l-1.02-0.88l-1.12-2.55
		l-0.61-2.04l-0.81-4.23v-1.61l-0.41-1.82l-0.41-2.41v-2.77l-0.41-2.55v-1.97l-0.2-1.97l-0.71-2.19v-2.7l-0.2-2.41v-9.27l-0.81-1.75
		l-1.21-1.39l-0.81-1.17l-0.81-1.53l-0.3-1.75l0.3-1.39l1.01-1.31l1.21-0.88l2.32-1.24l2.83-0.15l2.93,0.15l2.22,1.02l2.12,1.09
		l2.22,1.61l1.11,1.09l0.81,1.75l2.22,0.8l2.12-0.51l2.93-0.29l2.83-0.58l2.73-0.58l3.54-0.29l2.83-0.29l2.93,0.73l1.42,1.17
		l1.31,2.12l1.01,1.46l0.4,2.12l1.01,1.39l1.52,1.75l1.01,2.41l0.2,2.12l0.2,2.34l0.61,2.26l0.2,2.26l0.81,2.04l0.2,1.97v2.12
		l0.4,2.04l1.11,2.12l0.4,2.12l1.62,1.61l0.81,1.68V149.66z M391.06,151.77l-0.81,0.88l-1.01,0.29l-0.81-1.17l1.62-1.17
		L391.06,151.77z"/>
	<path class="st1" d="M477.17,69.23l-1.11,3.94l-1.21,5.47l-2.02,3.8l-1.31,3.72l-1.42,4.01l-1.21,4.82v4.31l-0.4,4.16l0.2,2.55
		l-0.4,4.09l-0.4,4.89l-1.11,3.43l0.81,8.1l-0.4,3.43l-0.2,3.72l-0.61,4.38l-0.61,3.14l-0.4,2.77l-0.4,4.82l0.81,4.31l1.01,8.68
		l0.81,2.12l1.11,0.73l-0.61,1.82l-1.7,0.88l-1.76-1.02l-0.59-1.97l-0.2-2.26l-1.12-1.61l-1.01-4.96l-0.81-2.7l-1.62-2.34
		l-1.52,1.61l-1.62,1.17l-3.54,0.66l-2.74,0.29l-5.77,1.46h-3.95l-5.57-1.17l-3.95-0.29l-1.42-1.97l-3.14-1.17l-1.92-1.09
		l-1.42-2.48l-2.53-1.97l-1.42-2.55l-1.82-2.26l0.2-2.99l-1.01-4.16l1.21-4.45l1.42-2.26l1.92-4.01l3.94-2.7l4.55-0.95l2.83-1.17
		l6.27-1.61l4.14,0.58l2.83-0.15l3.13,1.31l4.75,0.58l4.14,1.68l-0.4-4.38l0.4-4.31l0.2-3.58l-0.4-7.44l-0.61-3.5v-4.45l1.01-4.82
		v-3.14l-0.61-3.87l-0.81-3.72l-2.73-4.96l-0.4-2.85v-1.61l0.2-2.12l1.01-2.04l1.92-1.24l4.95,0.15l4.35,1.82l4.55-1.02l5.56,2.04
		L477.17,69.23z M436.54,105.87l-1.01,3.87l-1.82,0.95v1.17l0.61,2.12l-2.73,0.88h-2.22l-2.93-1.46l-0.4-2.55v-1.53l0.81-4.6
		l1.42-1.97l3.74-0.15l3.13,1.24L436.54,105.87z M457.46,138.78v-6.13l-0.4-2.99l-1.41-1.97l-0.2-2.99l-1.31-2.41l-3.03-0.29h-4.35
		l-5.05,1.24l-5.15,2.85l-3.03,2.48l-2.12,2.41l-1.01,2.55l-2.32,2.55l-0.4,2.41l0.61,2.34l1.11,1.68l1.62,1.31l4.95,3.65l7.28,1.46
		l4.75-0.15h2.93l3.03-0.15l2.53,0.29l-0.61-2.55l1.21-0.44v-4.31L457.46,138.78z"/>
</g>
</svg>
