<?xml version="1.0" encoding="UTF-8"?>
<svg id="_Слой_1" data-name="Слой 1" xmlns="http://www.w3.org/2000/svg" xmlns:xlink="http://www.w3.org/1999/xlink" viewBox="0 0 1043.44 176.64">
  <defs>
    <style>
      .cls-1 {
        fill: url(#_Безымянный_градиент_91);
      }

      .cls-1, .cls-2, .cls-3, .cls-4, .cls-5, .cls-6, .cls-7 {
        stroke-width: 0px;
      }

      .cls-2 {
        fill: url(#_Безымянный_градиент_92);
      }

      .cls-3 {
        fill: url(#_Безымянный_градиент_88-2);
      }

      .cls-8 {
        filter: url(#AI_Скошенная_тень_1);
      }

      .cls-4 {
        fill: url(#_Безымянный_градиент_89);
      }

      .cls-5 {
        fill: url(#_Безымянный_градиент_88-3);
      }

      .cls-6 {
        fill: url(#_Безымянный_градиент_88);
      }

      .cls-7 {
        fill: url(#_Безымянный_градиент_90);
      }
    </style>
    <filter id="AI_Скошенная_тень_1" x="-20%" y="-20%" width="140%" height="140%">
      <feGaussianBlur in="SourceAlpha" result="blur" stdDeviation="4"/>
      <feOffset dx="4" dy="4" in="blur" result="offsetBlur"/>
      <feSpecularLighting in="blur" result="specOut" specularConstant="1" specularExponent="10" surfaceScale="5">
        <fePointLight x="-5000" y="-10000" z="-20000"/>
      </feSpecularLighting>
      <feComposite in="specOut" in2="SourceAlpha" operator="in" result="specOut"/>
      <feComposite in="SourceGraphic" in2="specOut" k1="0" k2="1" k3="1" k4="0" operator="arithmetic" result="litPaint"/>
      <feMerge>
        <feMergeNode in="offsetBlur"/>
        <feMergeNode in="litPaint"/>
      </feMerge>
    </filter>
    <linearGradient id="_Безымянный_градиент_88" data-name="Безымянный градиент 88" x1="0" y1="88.32" x2="133.54" y2="88.32" gradientUnits="userSpaceOnUse">
      <stop offset="0" stop-color="#74007f"/>
      <stop offset=".27" stop-color="#e900d7"/>
      <stop offset=".53" stop-color="#aa0097"/>
      <stop offset="1" stop-color="#000"/>
    </linearGradient>
    <linearGradient id="_Безымянный_градиент_90" data-name="Безымянный градиент 90" x1="151.95" y1="114.16" x2="294.6" y2="114.16" gradientUnits="userSpaceOnUse">
      <stop offset="0" stop-color="#74007f"/>
      <stop offset=".27" stop-color="#e900d7"/>
      <stop offset=".73" stop-color="#aa0097"/>
      <stop offset="1" stop-color="#000"/>
    </linearGradient>
    <linearGradient id="_Безымянный_градиент_88-2" data-name="Безымянный градиент 88" x1="319.53" y1="111.85" x2="426.63" y2="111.85" xlink:href="#_Безымянный_градиент_88"/>
    <linearGradient id="_Безымянный_градиент_88-3" data-name="Безымянный градиент 88" x1="436.29" y1="98.32" x2="570.36" y2="98.32" xlink:href="#_Безымянный_градиент_88"/>
    <linearGradient id="_Безымянный_градиент_91" data-name="Безымянный градиент 91" x1="576.16" y1="112.71" x2="812.3" y2="112.71" gradientUnits="userSpaceOnUse">
      <stop offset="0" stop-color="#74007f"/>
      <stop offset=".27" stop-color="#e900d7"/>
      <stop offset=".7" stop-color="#aa0097"/>
    </linearGradient>
    <linearGradient id="_Безымянный_градиент_92" data-name="Безымянный градиент 92" x1="760.36" y1="111.53" x2="902.7" y2="111.53" gradientUnits="userSpaceOnUse">
      <stop offset="0" stop-color="#74007f"/>
      <stop offset=".27" stop-color="#e900d7"/>
      <stop offset=".53" stop-color="#aa0097"/>
      <stop offset="1" stop-color="#000"/>
    </linearGradient>
    <linearGradient id="_Безымянный_градиент_89" data-name="Безымянный градиент 89" x1="928.92" y1="99.5" x2="1075.44" y2="99.5" gradientUnits="userSpaceOnUse">
      <stop offset="0" stop-color="#74007f"/>
      <stop offset=".27" stop-color="#e900d7"/>
      <stop offset=".6" stop-color="#aa0097"/>
      <stop offset="1" stop-color="#000"/>
    </linearGradient>
  </defs>
  <g class="cls-8">
    <path class="cls-6" d="M4.27,143.31c1.46,0,3.17,1.1,5.13,3.3,6.1,6.67,13.57,12.02,22.4,16.05,8.83,4.03,17.56,6.04,26.18,6.04,9.52,0,14.28-2.89,14.28-8.67,0-3.66-1.67-7.79-5-12.39s-11.31-13.69-23.92-27.28c-15.87-17.17-26.45-29.9-31.74-38.2C4.6,71.17,1.1,60.71,1.1,50.78c0-14.97,6.67-27.22,20.02-36.74C34.22,4.68,50.37,0,69.58,0c13.43,0,25.76,2.73,36.99,8.18,4.23,2.12,7.87,4.56,10.93,7.32,3.05,2.77,4.58,5.09,4.58,6.96,0,.9-.43,1.73-1.28,2.5-.85.77-1.73,1.16-2.62,1.16-1.38,0-3.42-1.26-6.1-3.78-4.39-4.15-10.17-7.59-17.33-10.31-7.16-2.73-14.04-4.09-20.63-4.09-4.07,0-7.39.88-9.95,2.63s-3.85,4.01-3.85,6.78c0,3.34,1.58,7.41,4.75,12.21,3.17,4.8,8.54,11.19,16.11,19.17,23.93,25.47,38.59,42.63,43.96,51.5,5.62,9.36,8.42,18.39,8.42,27.1,0,7.41-2,14.4-5.98,21-3.99,6.59-9.52,12-16.6,16.24-13.51,8.06-29.99,12.08-49.44,12.08-17.9,0-33.65-4.64-47.24-13.92-9.52-6.51-14.28-11.6-14.28-15.26,0-1.06.43-2.01,1.28-2.87.85-.85,1.85-1.28,2.99-1.28Z"/>
    <path class="cls-7" d="M294.6,54.33l-.32,84.43.32,32.87h-55v-15.15c-9.08,6.23-17.36,10.71-24.84,13.43-7.48,2.72-15.29,4.08-23.44,4.08-14.95,0-25.78-4.44-32.51-13.32-2.5-3.29-4.24-7.04-5.2-11.23-.97-4.19-1.45-10.15-1.45-17.89l.21-25.14.11-16.76-.54-35.34h55l-.64,53.93.11,20.41.11,13.75c0,8.24.5,13.18,1.5,14.82,1.22,1.86,3.51,2.79,6.88,2.79s7-.89,10.69-2.69c3.69-1.79,8.47-4.98,14.34-9.56l.11-14.07.21-38.35-.64-37.71v-3.33h55Z"/>
    <path class="cls-3" d="M374.53,87.63l-.21,41.25.43,42.75h-55.21l.13-5.91.13-21.91.39-39.42-.52-43.83-.13-6.23h55.11v22.13c8.22-8.74,13.94-14.25,17.15-16.54,7.43-5.23,14.43-7.84,21.01-7.84,4,0,7.31.86,9.92,2.58s3.91,3.9,3.91,6.55c0,2.08-.79,3.8-2.36,5.16-1.57,1.36-3.54,2.04-5.9,2.04-1.5,0-3.18-.43-5.04-1.29-3.15-1.5-5.75-2.26-7.83-2.26-5.15,0-10.11,1.76-14.9,5.26-4.79,3.51-10.15,9.35-16.08,17.51Z"/>
    <path class="cls-5" d="M502.36,25l-.43,22.45-.43,35.77.11,26.1.43,55.32,7.72.11,45.9-.75,8.37-.11c4.22,0,6.33,1.27,6.33,3.81,0,2.25-1.14,3.49-3.43,3.7-.5.07-2.15.15-4.94.22h-125.69l.32-40.82.21-25.03.21-28.36-.43-43.18.11-9.24h65.63Z"/>
    <path class="cls-1" d="M659.73,100.09v-13.11c-.07-9.09-.22-14.68-.43-16.76-.21-2.08-.86-3.94-1.93-5.59-2.58-4.01-8.61-6.02-18.08-6.02-14.63,0-25.93,4.58-33.89,13.75-3.23,3.72-5.95,5.59-8.17,5.59-1.65,0-3.09-.57-4.31-1.72-1.22-1.14-1.83-2.47-1.83-3.97,0-4.51,5.33-9.17,16.01-13.96,10.17-4.58,23.31-6.88,39.42-6.88,26.5,0,45.19,4.01,56.07,12.03,4.73,3.51,7.8,7.45,9.24,11.82,1.43,4.37,2.15,12.07,2.15,23.1v42.65c-.29,7.88-.05,13.8.7,17.78s2.45,8.25,5.1,12.84h-60.16v-11.28c-6.59,4.51-13.12,7.91-19.6,10.21-6.48,2.29-12.87,3.44-19.17,3.44-10.67,0-20.16-3.12-28.47-9.35-10.81-8.16-16.22-18.76-16.22-31.8,0-11.53,4.37-20.84,13.12-27.93,10.18-8.38,22.8-12.57,37.86-12.57,6.17,0,11.62.56,16.35,1.67,4.73,1.11,10.15,3.13,16.24,6.07ZM659.73,107.82c-9.02-4.51-16.01-6.77-20.95-6.77-4.15,0-6.88,1.65-8.16,4.94-.72,1.79-1.07,6.98-1.07,15.58v25.67c.07,5.66.25,9.1.54,10.31.71,3.29,3.15,4.94,7.3,4.94,3.29,0,6.96-.98,11.01-2.95,4.04-1.97,7.75-4.57,11.12-7.79l.21-43.94Z"/>
    <path class="cls-2" d="M793.36,54.33v14.93c8.38-5.94,16.58-10.4,24.6-13.37,8.02-2.97,15.83-4.46,23.42-4.46,10.17,0,18.76,2.33,25.78,6.98,5.3,3.51,8.86,7.86,10.69,13.05,1.83,5.19,2.74,13.66,2.74,25.41l-.21,49.74.32,25.03h-54.57l.37-29.86.28-21.91-.11-33.09c-.07-7.66-.16-12.23-.27-13.7-.11-1.47-.45-2.77-1.02-3.92-1.15-2.29-3.62-3.44-7.41-3.44-3.51,0-7.3,1-11.39,3.01-4.08,2.01-8.49,5.01-13.21,9.02l-.11,4.4-.21,30.19-.21,23.1.32,31.58.11,4.62h-54.89l.32-42.11.32-27.82-.32-24.06-.32-23.31h55Z"/>
    <path class="cls-4" d="M1043.44,25l-.21,52.53-.11,37.17.32,52.1v4.83h-54.89v-13.96c-5.87,5.87-11.55,10.06-17.03,12.57s-11.69,3.76-18.64,3.76c-13.61,0-25.71-5.01-36.31-15.04-13.11-12.39-19.66-28.11-19.66-47.16s6.34-33.48,19.01-45.01c11.24-10.24,23.88-15.36,37.92-15.36,6.23,0,12.26,1.18,18.1,3.54,5.84,2.36,11.48,5.91,16.92,10.63l-.43-40.61h55ZM988.87,74.41c-5.59-5.08-10.62-8.88-15.09-11.39-4.48-2.51-8.43-3.76-11.87-3.76-2.72,0-4.57.99-5.53,2.95-.97,1.97-1.45,5.68-1.45,11.12l.11,4.73v72.19c.07,5.8.32,9.42.75,10.85.86,3.08,2.94,4.62,6.23,4.62,3.58,0,7.38-1.34,11.39-4.03,4.01-2.69,9.17-7.36,15.47-14.02v-73.26Z"/>
  </g>
</svg>